<?xml version="1.0" encoding="iso-8859-1"?>
<!-- Generator: Adobe Illustrator 16.0.0, SVG Export Plug-In . SVG Version: 6.00 Build 0)  -->
<!DOCTYPE svg PUBLIC "-//W3C//DTD SVG 1.1//EN" "http://www.w3.org/Graphics/SVG/1.1/DTD/svg11.dtd">
<svg version="1.1" id="Layer_1" xmlns="http://www.w3.org/2000/svg" xmlns:xlink="http://www.w3.org/1999/xlink" x="0px" y="0px"
	 width="520px" height="58px" viewBox="0 0 520 58" style="enable-background:new 0 0 520 58;" xml:space="preserve">
<g>
	<polygon style="fill:#FFFFFF;" points="62.01,36.03 72.71,36.03 67.23,22.17 	"/>
	<path style="fill:#FFFFFF;" d="M278.12,25.273c1.514-1.328,2.271-3.125,2.271-5.391c0-1.367-0.327-2.563-0.981-3.589
		s-1.621-1.826-2.9-2.402c-1.279-0.576-2.847-0.864-4.702-0.864h-3.076v14.238h2.402C274.277,27.266,276.606,26.602,278.12,25.273z"
		/>
	<path style="fill:#FFFFFF;" d="M273.477,30.488h-4.746v9.551v0.791c0,1.446,0.088,2.574,0.264,3.384
		c0.176,0.811,0.615,1.436,1.318,1.875s1.816,0.659,3.34,0.659c2.031,0,3.843-0.615,5.435-1.846s2.388-3.193,2.388-5.889
		s-0.698-4.79-2.095-6.284S276.016,30.488,273.477,30.488z"/>
	<path style="fill:#FFFFFF;" d="M0,0v58h520V0H0z M45.61,49.59h-2.76c-0.41-1.68-1.08-3.18-2.02-4.51c-1.48,1.54-3.18,2.87-5.1,3.98
		c-1.91,1.12-4.5,1.67-7.76,1.67c-3.58,0-6.89-0.87-9.95-2.61c-3.05-1.73-5.49-4.16-7.31-7.28c-1.81-3.11-2.72-6.62-2.72-10.53
		c0-2.77,0.49-5.42,1.48-7.94c0.98-2.52,2.39-4.73,4.22-6.65c1.82-1.91,4-3.41,6.53-4.51c2.53-1.09,5.3-1.64,8.31-1.64
		c4.96,0,9.06,1.62,12.3,4.86c0.43-0.84,0.85-2.06,1.26-3.66h2.64l0.47,14.62h-2.82c-0.51-2.48-1.42-4.69-2.75-6.62
		s-2.91-3.41-4.73-4.44c-1.83-1.02-3.74-1.54-5.73-1.54c-2.23,0-4.23,0.61-6.01,1.83c-1.77,1.22-3.16,3.09-4.17,5.59
		c-1.01,2.5-1.51,5.61-1.51,9.34c0,3.63,0.42,6.66,1.26,9.07c0.84,2.41,1.88,4.23,3.12,5.46c1.24,1.23,2.49,2.07,3.74,2.51
		s2.42,0.66,3.51,0.66c2.4,0,4.57-0.65,6.49-1.94s3.5-2.91,4.73-4.88c1.23-1.96,2.05-3.91,2.46-5.84h2.82V49.59z M90.17,50H71.45
		v-2.7c1.58,0,2.73-0.11,3.45-0.33c0.72-0.23,1.09-0.76,1.09-1.6c0-0.58-0.12-1.18-0.36-1.79l-1.87-4.68H60.87l-0.97,2.57
		c-0.54,1.45-0.82,2.49-0.82,3.14c0,1.17,0.46,1.91,1.36,2.23c0.91,0.31,1.97,0.46,3.18,0.46V50H49.94v-2.7
		c1.1,0,2.02-0.2,2.78-0.61c0.77-0.41,1.49-1.19,2.19-2.33c0.69-1.14,1.44-2.76,2.24-4.85l11.45-30h2.79l12.1,30.94
		c0.88,2.19,1.52,3.67,1.93,4.44s0.98,1.36,1.7,1.78c0.72,0.43,1.74,0.63,3.05,0.63V50z M127.52,50H92.129v-2.695
		c2.441,0,4.014-0.352,4.717-1.055s1.055-1.914,1.055-3.633V17.656c0-1.152-0.117-2.046-0.352-2.681
		c-0.234-0.634-0.776-1.128-1.626-1.479s-2.114-0.527-3.794-0.527v-2.695h19.98v2.695c-1.66,0-2.915,0.166-3.765,0.498
		c-0.85,0.333-1.406,0.816-1.67,1.45c-0.264,0.635-0.396,1.548-0.396,2.739v22.852c0,1.797,0.088,3.086,0.264,3.867
		c0.176,0.781,0.654,1.373,1.436,1.772c0.781,0.4,2.061,0.601,3.838,0.601c2.246,0,4.214-0.171,5.903-0.513
		c1.689-0.341,3.252-1.25,4.688-2.725c1.436-1.475,2.329-3.735,2.681-6.782h2.695L127.52,50z M169.297,12.969
		c-0.938,0.02-1.753,0.146-2.446,0.381c-0.693,0.234-1.265,0.601-1.714,1.099c-0.45,0.498-0.898,1.177-1.348,2.036
		c-0.45,0.86-1.074,2.208-1.875,4.043l-12.949,30.205h-2.725l-13.535-31.699c-0.84-1.973-1.494-3.33-1.963-4.072
		c-0.469-0.742-1.094-1.26-1.875-1.553c-0.781-0.293-1.944-0.439-3.486-0.439v-2.695h20.215v2.695
		c-1.915,0.078-3.242,0.234-3.984,0.469c-0.743,0.234-1.113,0.82-1.113,1.758c0,0.879,0.234,1.816,0.703,2.812l9.141,21.24
		l8.438-19.834c0.722-1.718,1.084-2.9,1.084-3.545c0-1.27-0.439-2.061-1.318-2.373c-0.879-0.312-2.197-0.488-3.955-0.527v-2.695
		h14.707V12.969z M191.416,12.969c-1.68,0-2.949,0.166-3.809,0.498c-0.86,0.333-1.421,0.816-1.685,1.45
		c-0.264,0.635-0.396,1.548-0.396,2.739v24.961c0,1.133,0.127,2.021,0.381,2.666c0.253,0.645,0.795,1.143,1.626,1.494
		c0.83,0.352,2.124,0.527,3.882,0.527V50H171.26v-2.695c1.68,0,2.949-0.161,3.809-0.483c0.859-0.322,1.421-0.806,1.685-1.45
		s0.396-1.562,0.396-2.754V17.656c0-1.718-0.356-2.93-1.069-3.633c-0.713-0.703-2.319-1.055-4.819-1.055v-2.695h20.156V12.969z
		 M237.266,12.969c-1.895,0-3.252,0.19-4.072,0.571s-1.329,0.942-1.523,1.685c-0.195,0.743-0.293,1.953-0.293,3.633v31.494h-2.695
		l-25.986-30.879v21.885c0,1.66,0.103,2.867,0.308,3.618c0.205,0.752,0.728,1.329,1.567,1.729c0.839,0.4,2.197,0.601,4.072,0.601V50
		h-14.766v-2.695c1.758,0,3.032-0.2,3.823-0.601c0.791-0.4,1.279-0.977,1.465-1.729c0.186-0.751,0.278-1.958,0.278-3.618V21.084
		c0-1.641-0.044-2.871-0.132-3.691s-0.298-1.538-0.63-2.153c-0.333-0.615-0.875-1.113-1.626-1.494
		c-0.752-0.381-1.792-0.64-3.12-0.776v-2.695h11.572l22.617,26.719V18.857c0-1.484-0.103-2.622-0.308-3.413
		s-0.713-1.401-1.523-1.831c-0.811-0.429-2.095-0.645-3.853-0.645v-2.695h14.824V12.969z M288.77,44.976
		c-1.133,1.417-2.568,2.49-4.307,3.223s-3.438,1.216-5.098,1.45S276.104,50,274.561,50h-19.922v-2.695
		c1.699,0,2.954-0.176,3.765-0.527s1.338-0.85,1.582-1.494s0.366-1.533,0.366-2.666V17.539c0-1.758-0.361-2.978-1.084-3.662
		c-0.723-0.684-2.266-1.025-4.629-1.025v-2.754c2.832-0.059,5.527-0.117,8.086-0.176s4.663-0.103,6.313-0.132
		s2.808-0.044,3.472-0.044h1.084c2.031,0,4.155,0.21,6.372,0.63c2.217,0.42,4.238,1.373,6.064,2.856
		c1.826,1.484,2.739,3.623,2.739,6.416c0,2.09-0.742,3.887-2.227,5.391c-1.484,1.504-3.916,2.744-7.295,3.721
		c2.305,0.41,4.312,1.099,6.021,2.065s3.003,2.193,3.882,3.677c0.879,1.484,1.318,3.154,1.318,5.01
		C290.469,41.738,289.902,43.56,288.77,44.976z M337.14,40.29c-1.72,3.15-4.26,5.68-7.63,7.59c-3.37,1.9-7.35,2.85-11.939,2.85
		c-3.75,0-7.051-0.6-9.9-1.81c-2.86-1.21-5.18-2.84-6.99-4.87c-1.81-2.03-3.15-4.26-4.01-6.68c-0.87-2.42-1.31-4.85-1.31-7.29
		c0-3.54,0.83-6.88,2.49-10.02c1.66-3.15,4.16-5.68,7.5-7.6c3.34-1.93,7.34-2.89,11.98-2.89c4.24,0,7.85,0.69,10.81,2.08
		c2.971,1.39,5.29,3.14,6.95,5.24c1.66,2.11,2.84,4.33,3.561,6.64c0.71,2.31,1.069,4.52,1.069,6.61
		C339.72,33.75,338.86,37.13,337.14,40.29z M379.355,50h-35.391v-2.695c2.441,0,4.014-0.352,4.717-1.055s1.055-1.914,1.055-3.633
		V17.656c0-1.132-0.112-2.017-0.337-2.651c-0.225-0.634-0.752-1.132-1.582-1.494c-0.83-0.361-2.114-0.542-3.853-0.542v-2.695h32.959
		l0.527,10.312h-2.695c-0.605-2.285-1.304-3.921-2.095-4.907c-0.791-0.986-1.68-1.592-2.666-1.816
		c-0.986-0.224-2.466-0.337-4.438-0.337h-7.441v14.033h4.043c1.387,0,2.422-0.122,3.105-0.366c0.684-0.244,1.162-0.708,1.436-1.392
		c0.273-0.684,0.459-1.758,0.557-3.223h2.812v13.213h-2.695c-0.078-1.465-0.273-2.544-0.586-3.237
		c-0.312-0.693-0.806-1.157-1.479-1.392s-1.704-0.352-3.091-0.352h-4.102v9.346c0,1.563,0.039,2.706,0.117,3.428
		c0.078,0.723,0.288,1.323,0.63,1.802c0.342,0.479,0.898,0.825,1.67,1.04c0.771,0.215,1.87,0.322,3.296,0.322h3.193
		c1.348,0,2.632-0.171,3.853-0.513c1.221-0.341,2.417-1.22,3.589-2.637c1.172-1.416,1.992-3.637,2.461-6.665h2.754L379.355,50z
		 M422.744,21.553h-2.783c-0.254-2.461-0.796-4.277-1.626-5.449s-1.724-1.894-2.681-2.168c-0.957-0.273-2.061-0.41-3.311-0.41
		h-5.039v29.092c0,1.153,0.117,2.046,0.352,2.681c0.234,0.635,0.781,1.128,1.641,1.479s2.119,0.527,3.779,0.527V50h-19.922v-2.695
		c2.441,0,4.014-0.352,4.717-1.055s1.055-1.914,1.055-3.633V13.525h-4.219c-1.66,0-3.037,0.132-4.131,0.396
		s-2.056,0.986-2.886,2.168c-0.83,1.182-1.304,3.003-1.421,5.464h-2.783V10.273h39.258V21.553z M465.225,21.553h-2.783
		c-0.254-2.461-0.796-4.277-1.626-5.449s-1.724-1.894-2.681-2.168c-0.957-0.273-2.061-0.41-3.311-0.41h-5.039v29.092
		c0,1.153,0.117,2.046,0.352,2.681c0.234,0.635,0.781,1.128,1.641,1.479s2.119,0.527,3.779,0.527V50h-19.922v-2.695
		c2.441,0,4.014-0.352,4.717-1.055s1.055-1.914,1.055-3.633V13.525h-4.219c-1.66,0-3.037,0.132-4.131,0.396
		s-2.056,0.986-2.886,2.168c-0.83,1.182-1.304,3.003-1.421,5.464h-2.783V10.273h39.258V21.553z M509.756,40.288
		c-1.719,3.154-4.263,5.684-7.632,7.588s-7.349,2.856-11.938,2.856c-3.75,0-7.051-0.605-9.902-1.816s-5.181-2.832-6.987-4.863
		c-1.807-2.031-3.145-4.258-4.014-6.68c-0.869-2.421-1.304-4.853-1.304-7.295c0-3.535,0.83-6.875,2.49-10.02
		c1.66-3.145,4.16-5.679,7.5-7.603c3.34-1.923,7.334-2.886,11.982-2.886c4.238,0,7.842,0.693,10.811,2.08
		c2.969,1.387,5.283,3.135,6.943,5.244s2.847,4.321,3.56,6.636s1.069,4.517,1.069,6.606
		C512.334,33.75,511.475,37.134,509.756,40.288z"/>
	<path style="fill:#FFFFFF;" d="M500.264,18.286c-0.957-1.611-2.266-2.89-3.926-3.838c-1.66-0.947-3.711-1.421-6.152-1.421
		c-3.359,0-5.981,0.835-7.866,2.505s-3.164,3.76-3.838,6.27c-0.674,2.51-1.011,5.249-1.011,8.218c0,1.641,0.107,3.35,0.322,5.127
		c0.215,1.777,0.732,3.599,1.553,5.464c0.82,1.865,2.129,3.438,3.926,4.717c1.797,1.279,4.121,1.919,6.973,1.919
		c2.832,0,5.132-0.659,6.899-1.978s3.057-2.93,3.867-4.834s1.318-3.725,1.523-5.464c0.205-1.738,0.308-3.388,0.308-4.951
		c0-2.227-0.19-4.336-0.571-6.328S501.221,19.897,500.264,18.286z"/>
</g>
<path style="fill:#FFFFFF;" d="M327.598,18.286c-0.957-1.611-2.266-2.89-3.926-3.838c-1.66-0.947-3.711-1.421-6.152-1.421
	c-3.359,0-5.981,0.835-7.866,2.505s-3.164,3.76-3.838,6.27c-0.674,2.51-1.011,5.249-1.011,8.218c0,1.641,0.107,3.35,0.322,5.127
	c0.215,1.777,0.732,3.599,1.553,5.464c0.82,1.865,2.129,3.438,3.926,4.717c1.797,1.279,4.121,1.919,6.973,1.919
	c2.832,0,5.132-0.659,6.899-1.978s3.057-2.93,3.867-4.834s1.318-3.725,1.523-5.464c0.205-1.738,0.308-3.388,0.308-4.951
	c0-2.227-0.19-4.336-0.571-6.328S328.555,19.897,327.598,18.286z"/>
</svg>
